<?xml version="1.0" encoding="UTF-8" standalone="no"?>
<svg
   xml:space="preserve"
   width="857.52942"
   height="1000"
   overflow="visible"
   viewBox="0 0 857.52942 999.99992"
   version="1.1"
   id="svg7"
   sodipodi:docname="apple.svg"
   inkscape:version="1.3.2 (091e20e, 2023-11-25, custom)"
   xmlns:inkscape="http://www.inkscape.org/namespaces/inkscape"
   xmlns:sodipodi="http://sodipodi.sourceforge.net/DTD/sodipodi-0.dtd"
   xmlns="http://www.w3.org/2000/svg"
   xmlns:svg="http://www.w3.org/2000/svg"><defs
   id="defs7"><inkscape:path-effect
     effect="bspline"
     id="path-effect11"
     is_visible="true"
     lpeversion="1.3"
     weight="33.333333"
     steps="2"
     helper_size="0"
     apply_no_weight="true"
     apply_with_weight="true"
     only_selected="false"
     uniform="false" /><inkscape:path-effect
     effect="bspline"
     id="path-effect9"
     is_visible="true"
     lpeversion="1.3"
     weight="33.333333"
     steps="2"
     helper_size="0"
     apply_no_weight="true"
     apply_with_weight="true"
     only_selected="false"
     uniform="false" /><inkscape:path-effect
     effect="bspline"
     id="path-effect8"
     is_visible="true"
     lpeversion="1.3"
     weight="33.333333"
     steps="2"
     helper_size="0"
     apply_no_weight="true"
     apply_with_weight="true"
     only_selected="false"
     uniform="false" /></defs><sodipodi:namedview
   id="namedview7"
   pagecolor="#ffffff"
   bordercolor="#000000"
   borderopacity="0.25"
   inkscape:showpageshadow="2"
   inkscape:pageopacity="0.0"
   inkscape:pagecheckerboard="0"
   inkscape:deskcolor="#d1d1d1"
   showgrid="false"
   inkscape:zoom="0.509"
   inkscape:cx="429.27308"
   inkscape:cy="342.82908"
   inkscape:window-width="1366"
   inkscape:window-height="705"
   inkscape:window-x="-8"
   inkscape:window-y="-8"
   inkscape:window-maximized="1"
   inkscape:current-layer="svg7" />
  <g
   fill-rule="evenodd"
   clip-rule="evenodd"
   transform="translate(3e-8 -.00025013) scale(.85753)"
   id="g7">
    <path
   fill="#61bb46"
   stroke="#61bb46"
   stroke-miterlimit="2.61310005"
   stroke-width="6.28089046"
   d="M54.232461 423.0098c.348572-.57566.718141-1.14287 1.087711-1.69954C115.05402 328.95469 209.27966 274.90015 297.88826 274.90015c90.22756 0 146.94605 49.66861 221.52778 49.66861 72.36642 0 116.44394-49.74031 220.75925-49.74031 78.81501 0 162.37771 43.09815 221.89737 117.62109-16.45637 9.05021-31.30215 19.32551-44.57099 30.6193l-863.269209-.0589z"
   id="path1" />
    <path
   fill="#61bb46"
   stroke="#61bb46"
   stroke-miterlimit="2.61310005"
   stroke-width="6.28089046"
   d="M661.04954 191.61588c37.86412-48.83359 66.66537-117.78556 56.22711-188.28314-61.90716 4.26153-134.31558 43.84038-176.60824 95.36246-38.37648 46.8051-70.05869 116.22095-57.7243 183.65049 67.5872 2.11073 137.50311-38.41488 178.10543-90.72981z"
   id="path2" />
    <path
   fill="#fdb827"
   d="M51.151054 421.64891C25.42683 462.11947 7.6276563 520.12542 2.9042342 571.00351l834.5498858-.0215c9.02332-55.66242 39.02667-108.84145 86.58225-149.27157l-872.885316-.0615h.04925z"
   id="path3" />
    <path
   fill="#f5821f"
   stroke="#f5821f"
   stroke-miterlimit="2.61310005"
   stroke-width="6.28089046"
   d="M10.482518 719.0309c-8.1095407-51.96489-9.4219338-102.06365-4.3277482-148.02531l828.0487802-.0213c-8.09905 49.84363-1.30189 101.71362 19.18405 148.07802l-842.905082-.0317z"
   id="path4" />
    <path
   fill="#e03a3e"
   stroke="#e03a3e"
   stroke-miterlimit="2.61310005"
   stroke-width="6.28089046"
   d="M50.950428 867.04567c-19.55361-49.72976-32.942121-99.67671-40.46791-148.01477l842.905082.0317c26.09457 59.07939 74.38644 109.27093 142.38522 135.06361-2.02003 4.51035-3.96868 8.82458-5.84383 12.98278l-938.978562-.0632z"
   id="path5" />
    <path
   fill="#963d97"
   stroke="#963d97"
   stroke-miterlimit="2.61310005"
   stroke-width="6.28089046"
   d="M989.9269 867.10682c-23.34591 51.54106-36.8793 78.29106-69.18727 127.67077-4.34665 6.63161-8.83819 13.41511-13.51452 20.26181l-778.04344.072c-2.4925-3.7281-4.9619-7.454-7.3935-11.1504-29.088937-44.49017-52.638522-90.61629-70.837742-136.91744l938.976472.0632z"
   id="path6" />
    <path
   fill="#009ddc"
   stroke="#009ddc"
   stroke-miterlimit="2.61310005"
   stroke-width="6.28089046"
   d="M907.22511 1015.0394c-47.59473 70.0126-111.49253 147.0574-189.02664 147.7891-75.65684.6895-95.06557-49.4409-197.70942-48.8758-102.64386.5757-124.07261 49.7509-199.72945 49.0403-80.88753-.7507-143.69762-76.4165-191.57793-147.8819l778.04344-.072z"
   id="path7" />
  </g>
<path
   style="fill:#000000"
   d="m 24.885396,412.90111 c 6.548789,-19.9738 12.442698,-31.76162 24.885586,-49.44359 12.442887,-17.68196 31.433994,-41.25713 58.284378,-62.54088 26.85038,-21.28376 61.55826,-40.27486 87.0987,-51.08039 25.54044,-10.80553 41.91208,-13.42499 61.23123,-12.77007 19.31915,0.65492 41.58459,4.58412 58.61155,7.85854 17.02697,3.27442 28.81455,5.89388 39.9476,10.15065 11.13305,4.25677 21.6109,10.15056 33.39885,14.07985 11.78795,3.9293 24.88526,5.89389 40.92999,6.54877 16.04472,0.65487 35.03582,1e-5 50.75304,-1.63722 15.71722,-1.63722 28.15967,-4.25668 39.2927,-7.53112 11.13304,-3.27443 20.95603,-7.20363 35.03611,-11.46039 14.08008,-4.25676 32.41632,-8.84082 50.42566,-11.46034 18.00935,-2.61952 35.69072,-3.27438 49.77072,-3.60182 14.08,-0.32744 24.55785,-0.32744 36.01836,0.98234 11.4605,1.30978 23.90295,3.92925 35.69088,8.84091 11.78793,4.91166 22.92065,12.11519 29.79691,17.35425 6.87625,5.23907 9.49571,8.51339 14.73482,14.73483 5.23911,6.22145 13.0975,15.38957 20.30124,22.59329 7.20373,7.20372 13.75238,12.44264 18.33656,17.35428 4.58418,4.91164 7.20364,9.4957 -2.29232,21.9386 -9.49596,12.4429 -31.10653,32.74374 -46.49627,52.3903 -15.38975,19.64655 -24.55787,38.63765 -32.41648,57.95678 -7.85861,19.31912 -14.40726,38.96509 -14.4072,60.90378 7e-5,21.93868 6.54872,46.16871 13.09758,71.05436 6.54885,24.88566 13.09751,50.42542 24.23061,70.07192 11.1331,19.6465 26.84987,33.39869 45.18669,45.1866 18.33682,11.78792 39.29252,21.61091 35.69041,52.39073 -3.60212,30.77982 -31.76135,82.51422 -60.90376,123.77189 -29.14241,41.25768 -59.26623,72.03637 -85.46161,91.02792 -26.19539,18.99155 -48.46082,26.19507 -71.3818,26.19499 -22.92099,-7e-5 -46.49617,-7.20358 -70.07204,-15.06221 -23.57588,-7.85862 -47.15104,-16.37188 -73.01904,-19.3188 -25.868,-2.94693 -54.02722,-0.32747 -79.89517,4.91164 -25.86795,5.23911 -49.44312,13.0975 -69.74454,18.33655 -20.30141,5.23906 -37.32792,7.85852 -49.7707,7.8585 -12.44277,-3e-5 -20.30116,-2.61949 -30.12446,-6.22137 -9.8233,-3.60188 -21.61089,-8.18594 -35.03606,-16.69949 -13.42516,-8.51355 -28.48707,-20.956 -41.91221,-35.69094 -13.42513,-14.73495 -25.21272,-31.76146 -35.03598,-46.16891 -9.82325,-14.40745 -17.68164,-26.19503 -22.59326,-33.39873 -4.91161,-7.20369 -6.87621,-9.82315 -10.478092,-14.73482 -3.601886,-4.91166 -8.840811,-12.11518 -14.079894,-21.2836 C 77.2756,808.12028 72.036673,796.98756 67.452481,789.12897 62.868288,781.27037 58.939094,776.68631 55.009783,768.82766 51.080472,760.969 47.151277,749.83628 43.549411,738.70323 39.947545,727.57018 36.673215,716.43746 33.398788,706.61419 30.12436,696.79092 26.850034,688.27767 23.903053,679.43671 20.956073,670.59576 18.336609,661.42764 17.026851,649.31223 15.717092,637.19682 15.717092,622.13491 14.079862,608.05488 12.442632,593.97485 9.1683045,580.87754 6.5487695,570.07195 3.9292346,559.26637 1.9646358,550.75311 1.6372101,537.65536 1.3097844,524.5576 2.6195154,506.87623 6.8762995,483.95519 11.133084,461.03415 18.336608,432.87492 24.885396,412.90111 Z"
   id="path8"
   inkscape:path-effect="#path-effect8"
   inkscape:original-d="m 25.540275,404.71513 c 5.89391,-11.78782 11.787819,-23.57564 17.681729,-35.36346 18.991866,-23.57611 37.982973,-47.15128 56.974456,-70.72692 34.70928,-18.99186 69.41716,-37.98297 104.12574,-56.97446 16.3723,-2.61956 32.74394,-5.23903 49.11591,-7.85854 22.26633,3.92935 44.53177,7.85854 66.79765,11.78782 11.78805,2.61957 23.57563,5.23903 35.36345,7.85854 10.47828,5.89403 20.95613,11.78782 31.43419,17.68173 13.09784,1.96468 26.19515,3.92928 39.29273,5.89391 18.99187,-0.65489 37.98297,-1.30976 56.97446,-1.96463 12.44295,-2.61957 24.8854,-5.23903 37.32809,-7.85855 9.82338,-3.92935 19.64637,-7.85855 29.46955,-11.78782 18.33698,-4.58424 36.67322,-9.1683 55.00983,-13.75246 17.68208,-0.65489 35.36345,-1.30975 53.04518,-1.96463 10.47827,0 20.95612,0 31.43419,0 12.44294,2.61957 24.88539,5.23903 37.32809,7.85854 11.13316,7.20382 22.26588,14.40734 33.39882,21.61101 2.61957,3.27446 5.23903,6.54878 7.85855,9.82318 7.8587,9.16849 15.71709,18.33661 23.57564,27.50491 6.54892,5.23914 13.09757,10.47806 19.64636,15.71709 2.61957,4.58425 5.23903,9.16831 7.85855,13.75246 -21.61144,20.30165 -43.22201,40.60249 -64.83301,60.90373 -9.16849,18.99187 -18.33661,37.98297 -27.50491,56.97446 -6.54892,19.64676 -13.09758,39.29273 -19.64636,58.9391 6.54891,24.231 13.09757,48.46103 19.64636,72.69155 6.54892,25.54079 13.09758,51.08055 19.64637,76.62082 15.7174,13.75274 31.43418,27.50492 47.15127,41.25737 20.95655,9.82338 41.91225,19.64637 62.86837,29.46955 -28.16035,51.73646 -56.31958,103.47086 -84.47937,155.20629 -30.12503,30.77992 -60.24885,61.55861 -90.37328,92.33791 -22.26633,7.20382 -44.53176,14.40734 -66.79764,21.61097 -23.57611,-7.20377 -47.15128,-14.4073 -70.72692,-21.61097 -23.57611,-8.51359 -47.15127,-17.02685 -70.72691,-25.54027 -28.16036,2.61957 -56.31958,5.23903 -84.47937,7.85855 -23.57611,7.8587 -47.15128,15.71709 -70.72692,23.57563 -17.02719,2.61957 -34.0537,5.23903 -51.08055,7.85855 -7.8587,-2.61957 -15.71709,-5.23903 -23.57564,-7.85855 -11.78805,-4.58424 -23.57564,-9.1683 -35.36346,-13.75245 -15.06251,-12.44295 -30.12442,-24.8854 -45.18664,-37.3281 -11.78805,-17.02719 -23.57564,-34.0537 -35.36345,-51.08055 -7.85871,-11.78805 -15.7171,-23.57563 -23.57564,-35.36345 -1.96468,-2.61957 -3.92928,-5.23903 -5.893913,-7.85855 -5.239135,-7.20381 -10.478061,-14.40733 -15.717092,-21.611 -5.239136,-11.13316 -10.478062,-22.26588 -15.717093,-33.39882 -3.929351,-4.58425 -7.858546,-9.16831 -11.787819,-13.75246 -3.929351,-11.13316 -7.858546,-22.26588 -11.787819,-33.39882 -3.27446,-11.13316 -6.548789,-22.26588 -9.823183,-33.39882 -3.27446,-8.5136 -6.548788,-17.02685 -9.823182,-25.54028 -2.619568,-9.16848 -5.239031,-18.3366 -7.858547,-27.50491 0,-15.06251 0,-30.12442 0,-45.18664 C 12.442633,593.97485 9.1683039,580.87754 5.8939096,567.77996 3.9292338,559.26637 1.9646365,550.75311 0,542.23969 1.3097839,524.5576 2.6195154,506.87623 3.9292731,489.1945 11.133084,461.03415 18.336608,432.87492 25.540275,404.71513 Z" /><path
   style="fill:#000000"
   d="m 605.4355,15.389654 c 9.49574,6.876227 9.49574,27.177471 7.20362,44.531905 -2.29213,17.354434 -6.87619,31.761481 -12.77017,45.841511 -5.89398,14.08003 -13.0975,27.83221 -22.92081,41.58481 -9.82331,13.75259 -22.26575,27.50477 -33.72624,38.6378 -11.46049,11.13303 -21.93834,19.64628 -35.03608,27.83234 -13.09773,8.18607 -28.8145,16.04445 -45.18665,20.30117 -16.37214,4.25672 -33.39865,4.91159 -41.25718,-6.54903 -7.85853,-11.46061 -6.5488,-35.03578 4.58435,-62.86845 11.13315,-27.83267 32.08885,-59.92109 55.66475,-84.479217 23.5759,-24.558128 49.77053,-41.584638 72.36404,-53.372523 22.59351,-11.787885 41.58462,-18.336544 51.08037,-11.460316 z"
   id="path9"
   inkscape:path-effect="#path-effect9"
   inkscape:original-d="m 614.93124,1.9646365 c 0,20.3012445 0,40.6024885 0,60.9037325 -4.58425,14.407623 -9.16831,28.81467 -13.75246,43.222001 -7.20381,13.75273 -14.40733,27.50491 -21.611,41.25737 -12.44295,13.75273 -24.8854,27.50491 -37.32809,41.25737 -10.47828,8.51359 -20.95613,17.02685 -31.43419,25.54027 -15.71741,7.85871 -31.43418,15.7171 -47.15128,23.57564 -17.02719,0.65489 -34.0537,1.30976 -51.08055,1.96464 1.30979,-23.57611 2.61952,-47.15128 3.92928,-70.72692 20.95654,-32.0897 41.91224,-64.17812 62.86837,-96.267188 26.19567,-17.027191 52.3903,-34.0537 78.58546,-51.08055 18.99186,-6.548919 37.98297,-13.097577 56.97446,-19.6463655 z" /><path
   style="fill:#000000"
   d="m 605.4355,15.389654 c 9.49574,6.876227 9.49574,27.177471 7.20362,44.531905 -2.29213,17.354434 -6.87619,31.761481 -12.77017,45.841511 -5.89398,14.08003 -13.0975,27.83221 -22.92081,41.58481 -9.82331,13.75259 -22.26575,27.50477 -33.72624,38.6378 -11.46049,11.13303 -21.93834,19.64628 -35.03608,27.83234 -13.09773,8.18607 -28.8145,16.04445 -45.18665,20.30117 -16.37214,4.25672 -33.39865,4.91159 -41.25718,-6.54903 -7.85853,-11.46061 -6.5488,-35.03578 4.58435,-62.86845 11.13315,-27.83267 32.08885,-59.92109 55.66475,-84.479217 23.5759,-24.558128 49.77053,-41.584638 72.36404,-53.372523 22.59351,-11.787885 41.58462,-18.336544 51.08037,-11.460316 z"
   id="path10"
   inkscape:path-effect="#path-effect11"
   inkscape:original-d="m 614.93124,1.9646365 c 0,20.3012445 0,40.6024885 0,60.9037325 -4.58425,14.407623 -9.16831,28.81467 -13.75246,43.222001 -7.20381,13.75273 -14.40733,27.50491 -21.611,41.25737 -12.44295,13.75273 -24.8854,27.50491 -37.32809,41.25737 -10.47828,8.51359 -20.95613,17.02685 -31.43419,25.54027 -15.71741,7.85871 -31.43418,15.7171 -47.15128,23.57564 -17.02719,0.65489 -34.0537,1.30976 -51.08055,1.96464 1.30979,-23.57611 2.61952,-47.15128 3.92928,-70.72692 20.95654,-32.0897 41.91224,-64.17812 62.86837,-96.267188 26.19567,-17.027191 52.3903,-34.0537 78.58546,-51.08055 18.99186,-6.548919 37.98297,-13.097577 56.97446,-19.6463655 z" /></svg>
